<?xml version="1.0" encoding="UTF-8" standalone="no"?>
<!-- Created with Inkscape (http://www.inkscape.org/) -->

<svg
   xmlns:dc="http://purl.org/dc/elements/1.1/"
   xmlns:cc="http://creativecommons.org/ns#"
   xmlns:rdf="http://www.w3.org/1999/02/22-rdf-syntax-ns#"
   xmlns:svg="http://www.w3.org/2000/svg"
   xmlns="http://www.w3.org/2000/svg"
   xmlns:sodipodi="http://sodipodi.sourceforge.net/DTD/sodipodi-0.dtd"
   xmlns:inkscape="http://www.inkscape.org/namespaces/inkscape"
   width="503.85599"
   height="218.26801"
   viewBox="0 0 503.85598 218.26801"
   id="svg2"
   version="1.1"
   inkscape:version="0.91 r13725"
   sodipodi:docname="Hutch logo.svg">
  <defs
     id="defs4">
    <pattern
       y="0"
       x="0"
       height="6"
       width="6"
       patternUnits="userSpaceOnUse"
       id="EMFhbasepattern" />
  </defs>
  <sodipodi:namedview
     id="base"
     pagecolor="#ffffff"
     bordercolor="#666666"
     borderopacity="1.0"
     inkscape:pageopacity="0.0"
     inkscape:pageshadow="2"
     inkscape:zoom="0.98994949"
     inkscape:cx="281.88496"
     inkscape:cy="120.13337"
     inkscape:document-units="px"
     inkscape:current-layer="layer1"
     showgrid="false"
     units="px"
     inkscape:window-width="1366"
     inkscape:window-height="705"
     inkscape:window-x="-8"
     inkscape:window-y="-8"
     inkscape:window-maximized="1" />
  <metadata
     id="metadata7">
    <rdf:RDF>
      <cc:Work
         rdf:about="">
        <dc:format>image/svg+xml</dc:format>
        <dc:type
           rdf:resource="http://purl.org/dc/dcmitype/StillImage" />
        <dc:title></dc:title>
      </cc:Work>
    </rdf:RDF>
  </metadata>
  <g
     inkscape:label="Layer 1"
     inkscape:groupmode="layer"
     id="layer1"
     transform="translate(0,-834.09426)">
    <g
       id="g4170">
      <path
         style="fill:#ff6600;fill-opacity:1;fill-rule:nonzero;stroke:none"
         d="m 0,1052.3623 503.856,0 0,-218.268 -503.856,0 z"
         id="path4141"
         inkscape:connector-curvature="0" />
      <path
         style="fill:#ffffff;fill-opacity:1;fill-rule:nonzero;stroke:none"
         d="m 245.40287,1003.7589 8.47516,-79.80688 -21.2254,0 3.07505,-18.30145 67.50134,0 -3.90009,18.37622 -22.80043,0.14883 -8.32517,79.58218 -22.80046,0 0,0 z"
         id="path4143"
         inkscape:connector-curvature="0" />
      <path
         style="fill:#ffffff;fill-opacity:1;fill-rule:nonzero;stroke:none"
         d="m 316.95429,981.0318 0,0 z"
         id="path4145"
         inkscape:connector-curvature="0" />
      <path
         style="fill:#ffffff;fill-opacity:1;fill-rule:nonzero;stroke:none"
         d="m 307.72911,992.73287 0,0 z"
         id="path4147"
         inkscape:connector-curvature="0" />
      <path
         style="fill:#ffffff;fill-opacity:1;fill-rule:nonzero;stroke:none"
         d="m 347.77891,904.22532 c 8.77517,-0.0744 16.80032,1.72504 24.22547,3.67545 -0.75003,2.47488 -3.97507,15.7511 -4.3501,17.40137 -7.12513,-1.50037 -16.12532,-2.32533 -21.60043,-1.95042 l 0,0 c -11.62423,1.12511 -20.92439,10.50121 -23.24944,31.87782 l 0,0 c -0.22501,1.65027 -0.30013,3.37531 -0.30013,5.17548 l 0,0 c 0,6.3757 1.20004,13.50124 3.97507,18.75184 l 0,0 c 4.72509,9.15073 15.29931,9.00083 27.44954,6.75062 5.85013,-1.1251 11.55025,-2.92527 11.55025,-2.92527 l -2.77507,17.02649 c 0,0 -14.55027,4.7254 -28.79957,5.0255 l 0,0 c -9.6752,0 -18.22537,-3.2254 -24.37546,-9.45083 l 0,0 c -7.50016,-7.42568 -11.25023,-17.55161 -11.17525,-31.20311 l 0,0 c 0,-2.92526 0.14989,-6.00043 0.45001,-9.30062 l 0,0 c 2.32506,-21.60198 10.3502,-34.50293 20.0254,-41.85349 l 0,0 c 9.7502,-7.35056 20.92442,-9.00083 28.94957,-9.00083 l 0,0 z"
         id="path4149"
         inkscape:connector-curvature="0" />
      <path
         style="fill:#ffffff;fill-opacity:1;fill-rule:nonzero;stroke:none"
         d="m 434.78062,931.60272 c 0,0 -0.0751,-0.0744 -0.0751,-0.0744 l 0,0 c 0,0 0.0751,0.0744 0.0751,0.0744 z m -8.40018,72.08138 0.22501,-2.3253 c 0,-0.074 7.05015,-66.98106 7.50016,-71.18133 l 0,0 0,0 0,-0.0744 0,-0.37491 0,0 c 0.0751,-3.90048 -0.82501,-6.22581 -2.02504,-7.05077 l 0,0 c -2.25005,-1.72504 -5.02511,-2.4001 -8.10016,-2.4001 l 0,0 c -4.42508,0 -9.45019,1.50002 -13.27527,3.15029 l 0,0 c -2.47504,0.97485 -4.42507,2.02518 -5.47512,2.62512 l 0,0 -10.3502,77.70692 -22.72545,-0.074 15.45033,-115.88498 0.37499,-2.92527 1.95003,-0.14883 1.20004,-0.0744 15.3003,-1.42525 4.72509,-0.45005 -0.30012,2.62513 -0.14989,1.72539 -2.55006,18.97651 c 5.77514,-1.95006 12.30027,-3.5252 18.75039,-3.5252 l 0,0 c 8.70016,-0.0744 16.05033,2.47523 21.0754,7.50045 l 0,0 c 4.80011,4.80056 7.20015,11.55118 7.20015,19.12676 l 0,0 c 0,1.35013 -0.0751,2.70025 -0.22501,4.05037 l 0,0 -7.65015,70.50628 -20.92542,-0.074 0,0"
         id="path4151"
         inkscape:connector-curvature="0" />
      <path
         style="fill:#ffffff;fill-opacity:1;fill-rule:nonzero;stroke:none"
         d="m 175.72749,1004.5091 c -12.22525,-0.074 -21.82543,-0.7502 -27.97556,-6.75064 l 0,0 c -4.3501,-4.35052 -6.37514,-10.27583 -6.37514,-17.62675 l 0,0 c 0,-1.50002 7.05015,-74.48114 7.05015,-74.48114 l 23.32545,0 c 0,0 -7.65015,72.98112 -7.65015,73.65619 l 0,0 c 0,2.70025 0.67501,4.35052 1.57503,5.17547 l 0,0 c 3.37507,3.52521 18.90037,3.52521 27.37557,-0.0744 l 0,0 8.25015,-78.83167 22.94946,0.0744 -9.9002,88.43243 -0.225,2.25021 c 0,0 -23.69949,8.17589 -38.32478,8.17589 l 0,0 -0.0751,0 0,0 z"
         id="path4153"
         inkscape:connector-curvature="0" />
      <path
         style="fill:#ffffff;fill-opacity:1;fill-rule:nonzero;stroke:none"
         d="m 50.100592,1003.6841 9.450187,-98.5587 22.950243,0 -3.675049,39.60329 29.700167,0 4.05008,-39.67841 23.17546,-0.14884 -11.47523,98.78376 -21.4504,0 3.82507,-41.70398 -29.625183,-0.14883 -4.124987,41.92901 -22.800358,-0.074 0,0 z"
         id="path4155"
         inkscape:connector-curvature="0" />
    </g>
  </g>
</svg>
